HIERARCHY
ROOT Hips
{
	OFFSET 0.00000 0.00000 0.00000
	CHANNELS 6 Xposition Yposition Zposition Zrotation Yrotation Xrotation 
	JOINT LHipJoint
	{
		OFFSET 0 0 0
		CHANNELS 3 Zrotation Yrotation Xrotation
		JOINT LeftUpLeg
		{
			OFFSET 1.53794 -1.55850 0.93568
			CHANNELS 3 Zrotation Yrotation Xrotation
			JOINT LeftLeg
			{
				OFFSET 2.28545 -6.27922 0.00000
				CHANNELS 3 Zrotation Yrotation Xrotation
				JOINT LeftFoot
				{
					OFFSET 2.37329 -6.52057 0.00000
					CHANNELS 3 Zrotation Yrotation Xrotation
					JOINT LeftToeBase
					{
						OFFSET 0.14846 -0.40788 2.09160
						CHANNELS 3 Zrotation Yrotation Xrotation
						End Site
						{
							OFFSET 0.00000 -0.00000 1.07536
						}
					}
				}
			}
		}
	}
	JOINT RHipJoint
	{
		OFFSET 0 0 0
		CHANNELS 3 Zrotation Yrotation Xrotation
		JOINT RightUpLeg
		{
			OFFSET -1.78290 -1.55850 0.93568
			CHANNELS 3 Zrotation Yrotation Xrotation
			JOINT RightLeg
			{
				OFFSET -2.24144 -6.15831 0.00000
				CHANNELS 3 Zrotation Yrotation Xrotation
				JOINT RightFoot
				{
					OFFSET -2.35091 -6.45907 0.00000
					CHANNELS 3 Zrotation Yrotation Xrotation
					JOINT RightToeBase
					{
						OFFSET -0.14428 -0.39641 2.07944
						CHANNELS 3 Zrotation Yrotation Xrotation
						End Site
						{
							OFFSET -0.00000 -0.00000 1.06864
						}
					}
				}
			}
		}
	}
	JOINT LowerBack
	{
		OFFSET 0 0 0
		CHANNELS 3 Zrotation Yrotation Xrotation
		JOINT Spine
		{
			OFFSET -0.08841 2.11430 -0.15818
			CHANNELS 3 Zrotation Yrotation Xrotation
			JOINT Spine1
			{
				OFFSET -0.00033 2.12605 -0.08097
				CHANNELS 3 Zrotation Yrotation Xrotation
				JOINT Neck
				{
					OFFSET 0 0 0
					CHANNELS 3 Zrotation Yrotation Xrotation
					JOINT Neck1
					{
						OFFSET 0.04431 1.59447 0.43193
						CHANNELS 3 Zrotation Yrotation Xrotation
						JOINT Head
						{
							OFFSET 0.00455 1.62017 -0.58852
							CHANNELS 3 Zrotation Yrotation Xrotation
							End Site
							{
								OFFSET -0.00920 1.72955 -0.25850
							}
						}
					}
				}
				JOINT LeftShoulder
				{
					OFFSET 0 0 0
					CHANNELS 3 Zrotation Yrotation Xrotation
					JOINT LeftArm
					{
						OFFSET 2.86490 1.49927 -0.33774
						CHANNELS 3 Zrotation Yrotation Xrotation
						JOINT LeftForeArm
						{
							OFFSET 4.87408 -0.00000 0.00000
							CHANNELS 3 Zrotation Yrotation Xrotation
							JOINT LeftHand
							{
								OFFSET 2.76729 -0.00000 0.00000
								CHANNELS 3 Zrotation Yrotation Xrotation
								JOINT LeftFingerBase
								{
									OFFSET 0 0 0
									CHANNELS 3 Zrotation Yrotation Xrotation
									JOINT LeftHandIndex1
									{
										OFFSET 0.98922 -0.00000 0.00000
										CHANNELS 3 Zrotation Yrotation Xrotation
										End Site
										{
											OFFSET 0.79753 -0.00000 0.00000
										}
									}
								}
								JOINT LThumb
								{
									OFFSET 0 0 0
									CHANNELS 3 Zrotation Yrotation Xrotation
									End Site
									{
										OFFSET 0.80972 -0.00000 0.80972
									}
								}
							}
						}
					}
				}
				JOINT RightShoulder
				{
					OFFSET 0 0 0
					CHANNELS 3 Zrotation Yrotation Xrotation
					JOINT RightArm
					{
						OFFSET -2.94414 1.45463 -0.25291
						CHANNELS 3 Zrotation Yrotation Xrotation
						JOINT RightForeArm
						{
							OFFSET -4.71404 -0.00000 0.00000
							CHANNELS 3 Zrotation Yrotation Xrotation
							JOINT RightHand
							{
								OFFSET -2.83468 -0.00000 0.00000
								CHANNELS 3 Zrotation Yrotation Xrotation
								JOINT RightFingerBase
								{
									OFFSET 0 0 0
									CHANNELS 3 Zrotation Yrotation Xrotation
									JOINT RightHandIndex1
									{
										OFFSET -0.86820 -0.00000 0.00000
										CHANNELS 3 Zrotation Yrotation Xrotation
										End Site
										{
											OFFSET -0.69996 -0.00000 0.00000
										}
									}
								}
								JOINT RThumb
								{
									OFFSET 0 0 0
									CHANNELS 3 Zrotation Yrotation Xrotation
									End Site
									{
										OFFSET -0.71065 -0.00000 0.71065
									}
								}
							}
						}
					}
				}
			}
		}
	}
}
MOTION
Frames: 11
Frame Time: .0083333
1.3556 15.8431 29.1019 0 0 0 0 0 0 -21 0 0 0 0 0 0 0 0 0 0 0 0 0 0 21 0 0 0 0 0 0 0 0 0 0 0 0 0 0 0 0 0 0 0 0 0 0 -16 0 0 21 0 0 11 0 0 0 -8 0 0 0 0 0 0 0 0 0 0 0 0 0 0 0 0 0 0 0 0 8 0 0 0 0 0 0 0 0 0 0 0 0 0 0 0 0 0
1.3556 15.8431 29.1019 177.9270 4.4327 -173.0770 0.0000 0.0000 0.0000 -14.2479 -19.0968 -22.0555 1.6623 8.1242 23.0920 -1.0430 19.7559 2.0145 0.1691 2.6491 7.3034 0.0000 0.0000 0.0000 24.9712 3.4893 -4.5792 -1.0905 -6.6366 18.6431 0.3329 -14.6541 -16.6318 -0.3896 4.0080 -11.0991 -5.3152 1.7182 -4.1828 0.3665 2.5490 -0.5698 3.4910 1.2547 1.5099 4.3236 2.1861 -31.9746 -3.5605 1.4013 33.3739 -2.1599 0.2199 17.8274 0.0000 -0.0000 0.0000 -91.3747 -6.0015 24.1313 12.5985 -20.6961 -2.3094 -0.0000 -0.0000 43.5171 -1.9386 6.6196 -0.2236 -7.1250 0.0000 -0.0000 -23.6343 35.6473 5.8486 0.0000 -0.0000 0.0000 89.4383 -2.6023 6.8212 -14.5580 23.5268 -3.0473 0.0000 0.0000 34.1529 -1.3421 -5.8903 0.1378 7.1250 -0.0000 -0.0000 20.8640 -35.1770 5.3310
1.3548 15.8432 29.1023 177.9060 4.4313 -173.0740 0.0000 0.0000 0.0000 -14.2737 -19.0956 -22.0554 1.6601 8.1191 23.0763 -1.0408 19.7518 2.0454 0.1689 2.6478 7.2996 0.0000 0.0000 0.0000 24.9489 3.5364 -4.5647 -1.0909 -6.6376 18.6460 0.3274 -14.6554 -16.7153 -0.3773 3.9451 -10.9224 -5.1347 1.7366 -4.2379 0.2053 2.5732 -0.5107 3.2281 1.2639 1.6147 4.2727 2.1406 -32.0363 -3.3445 1.2881 33.2716 -2.0722 0.2101 17.7768 0.0000 -0.0000 0.0000 -91.1062 -5.9842 24.5092 12.7358 -20.8989 -2.3582 -0.0000 -0.0000 43.6197 -1.6420 6.3279 -0.1810 -7.1250 0.0000 -0.0000 -23.3208 35.3988 5.9128 0.0000 -0.0000 0.0000 89.6940 -2.4975 6.8059 -14.5349 23.4942 -3.0381 0.0000 0.0000 34.2496 -1.3727 -6.0047 0.1436 7.1250 -0.0000 -0.0000 20.8688 -35.2857 5.2733
1.3543 15.8432 29.1019 177.9200 4.4497 -173.0680 0.0000 0.0000 0.0000 -14.2541 -19.1129 -22.0477 1.6595 8.1176 23.0718 -1.0464 19.7935 2.0325 0.1686 2.6451 7.2922 0.0000 0.0000 0.0000 24.9627 3.5565 -4.5642 -1.0903 -6.6360 18.6414 0.3293 -14.6742 -16.7217 -0.3807 3.9627 -10.9717 -4.9303 1.7592 -4.3220 0.0621 2.6033 -0.4294 2.9727 1.2750 1.7587 4.4125 2.1567 -32.1401 -3.2993 1.2274 33.2097 -2.0862 0.2181 17.7653 0.0000 -0.0000 0.0000 -90.8593 -6.0135 24.7952 12.8497 -21.0666 -2.3990 -0.0000 -0.0000 43.6716 -1.3886 6.0740 -0.1470 -7.1250 0.0000 -0.0000 -23.0532 35.1814 5.9673 0.0000 -0.0000 0.0000 89.9354 -2.3378 6.7296 -14.4798 23.4165 -3.0162 0.0000 0.0000 34.3541 -1.3149 -6.1321 0.1405 7.1250 -0.0000 -0.0000 20.9470 -35.4012 5.2324
1.3534 15.8431 29.1011 177.9150 4.4624 -173.0610 0.0000 0.0000 0.0000 -14.2570 -19.1287 -22.0402 1.6582 8.1147 23.0629 -1.0511 19.8347 2.0330 0.1693 2.6504 7.3070 0.0000 0.0000 0.0000 24.9558 3.6049 -4.5513 -1.0909 -6.6378 18.6465 0.3306 -14.6948 -16.7395 -0.3719 3.9172 -10.8439 -4.7558 1.7814 -4.4161 -0.0771 2.6350 -0.3624 2.7387 1.2880 1.8922 4.4865 2.1236 -32.2462 -3.1965 1.0965 33.2026 -2.0815 0.1964 17.7782 0.0000 -0.0000 0.0000 -90.6358 -6.0088 25.0854 12.9824 -21.2614 -2.4469 -0.0000 -0.0000 43.5011 -1.3442 5.9043 -0.1383 -7.1250 0.0000 -0.0000 -22.9722 35.0279 6.0365 0.0000 -0.0000 0.0000 90.1797 -2.2801 7.0926 -14.4643 23.3945 -3.0100 0.0000 0.0000 33.3616 -1.7622 -6.6349 0.2037 7.1250 -0.0000 -0.0000 20.7218 -35.8988 4.9012
1.3528 15.8437 29.1006 177.9010 4.4539 -173.0550 0.0000 0.0000 0.0000 -14.2723 -19.1631 -22.0314 1.6577 8.1134 23.0592 -1.0567 19.8758 2.0190 0.1697 2.6536 7.3158 0.0000 0.0000 0.0000 24.9361 3.5967 -4.5585 -1.0910 -6.6380 18.6472 0.3246 -14.6649 -16.7738 -0.3729 3.9224 -10.8586 -4.6024 1.8029 -4.4952 -0.2110 2.6659 -0.2994 2.5215 1.3013 2.0124 4.3755 2.0271 -32.3176 -2.9848 0.9302 33.1713 -2.0023 0.1533 17.7655 -0.0000 0.0000 0.0000 -90.4309 -5.9885 25.6678 13.1849 -21.5575 -2.5208 -0.0000 -0.0000 42.4874 -1.5060 6.1162 -0.1605 -7.1250 0.0000 -0.0000 -23.1562 35.2128 5.9788 -0.0000 0.0000 0.0000 90.4166 -2.2072 6.9915 -14.4180 23.3292 -2.9917 0.0000 0.0000 33.4397 -1.8416 -6.6542 0.2135 7.1250 -0.0000 -0.0000 20.6636 -35.9218 4.8734
1.3525 15.8433 29.1003 177.8980 4.4316 -173.0240 0.0000 0.0000 0.0000 -14.2755 -19.1514 -22.0679 1.6556 8.1085 23.0441 -1.0529 19.8497 2.0327 0.1687 2.6459 7.2943 0.0000 0.0000 0.0000 24.9204 3.4996 -4.6438 -1.0929 -6.6437 18.6640 0.3144 -14.5736 -16.7595 -0.3715 3.9147 -10.8368 -4.4570 1.8212 -4.5849 -0.3241 2.6925 -0.2593 2.3299 1.3137 2.1141 4.4949 2.0044 -32.3713 -2.9547 0.8280 33.0959 -2.0295 0.1383 17.7329 0.0000 -0.0000 0.0000 -90.2776 -5.9153 26.1954 13.3947 -21.8628 -2.5984 -0.0000 -0.0000 42.1106 -1.8200 6.5327 -0.2071 -7.1250 0.0000 -0.0000 -23.5172 35.5754 5.8600 0.0000 -0.0000 0.0000 90.6188 -2.1918 7.0293 -14.3926 23.2932 -2.9816 0.0000 0.0000 33.1881 -1.9137 -6.9091 0.2303 7.1250 -0.0000 -0.0000 20.6725 -36.1649 4.7450
1.3524 15.8445 29.1002 177.8790 4.4191 -173.0090 0.0000 0.0000 0.0000 -14.2964 -19.1485 -22.0740 1.6541 8.1049 23.0332 -1.0525 19.8258 1.9891 0.1720 2.6716 7.3659 0.0000 0.0000 0.0000 24.9000 3.4894 -4.6686 -1.0942 -6.6474 18.6748 0.3140 -14.5743 -16.7675 -0.3708 3.9110 -10.8265 -4.2922 1.8214 -4.6543 -0.4630 2.6942 -0.2087 2.0992 1.3141 2.2194 4.7493 2.0457 -32.3073 -2.9904 0.7871 32.9101 -2.0905 0.1562 17.6201 -0.0000 -0.0000 0.0000 -90.0674 -5.9159 26.5695 13.5036 -22.0207 -2.6391 -0.0000 -0.0000 41.3314 -1.8431 6.6660 -0.2140 -7.1250 0.0000 -0.0000 -23.5730 35.6962 5.8004 -0.0000 -0.0000 0.0000 90.8516 -2.1200 6.8847 -14.3103 23.1766 -2.9491 0.0000 0.0000 33.4696 -1.9825 -6.8591 0.2369 7.1250 -0.0000 -0.0000 20.6045 -36.1225 4.7503
1.3524 15.8442 29.0997 177.8550 4.3748 -172.9890 0.0000 0.0000 0.0000 -14.3215 -19.1710 -22.0945 1.6521 8.1004 23.0194 -1.0492 19.8102 2.0165 0.1728 2.6780 7.3834 0.0000 0.0000 0.0000 24.8770 3.4843 -4.6993 -1.0957 -6.6519 18.6880 0.3157 -14.5983 -16.7857 -0.3681 3.8974 -10.7881 -4.0972 1.8035 -4.7052 -0.6210 2.6704 -0.1162 1.8309 1.3011 2.3612 4.8146 2.0917 -32.6335 -2.8897 0.7912 32.8500 -2.0509 0.1931 17.6628 -0.0000 0.0000 0.0000 -89.8386 -6.0336 26.6191 13.4939 -22.0066 -2.6355 -0.0000 -0.0000 41.4099 -1.6352 6.5455 -0.1864 -7.1250 0.0000 -0.0000 -23.3765 35.5992 5.8047 -0.0000 0.0000 0.0000 91.1167 -1.9136 6.6480 -14.2024 23.0233 -2.9068 0.0000 0.0000 33.8000 -1.9396 -6.8522 0.2315 7.1250 -0.0000 -0.0000 20.6369 -36.1133 4.7636
1.3524 15.8448 29.0996 177.8500 4.3315 -172.9800 0.0000 0.0000 0.0000 -14.3334 -19.1611 -22.1081 1.6503 8.0962 23.0066 -1.0450 19.7621 1.9923 0.1739 2.6859 7.4055 0.0000 0.0000 0.0000 24.8755 3.4752 -4.7150 -1.0966 -6.6544 18.6956 0.3212 -14.6363 -16.7724 -0.3715 3.9149 -10.8374 -3.8363 1.7336 -4.7626 -0.7684 2.5736 -0.0205 1.5323 1.2527 2.5161 4.5851 2.0291 -32.7052 -2.5712 0.6716 32.9973 -1.8990 0.1632 17.7473 0.0000 -0.0000 0.0000 -89.6233 -6.1099 26.4205 13.4861 -21.9953 -2.6326 -0.0000 -0.0000 41.5902 -1.5435 6.4322 -0.1730 -7.1250 0.0000 -0.0000 -23.2731 35.5010 5.8358 0.0000 -0.0000 0.0000 91.3508 -1.7222 6.6241 -14.1071 22.8876 -2.8696 0.0000 0.0000 34.0350 -1.9553 -6.8473 0.2332 7.1250 -0.0000 -0.0000 20.6231 -36.1098 4.7619
1.3532 15.8450 29.0988 177.8210 4.3018 -172.9620 0.0000 0.0000 0.0000 -14.3663 -19.1562 -22.1362 1.6498 8.0950 23.0031 -1.0392 19.7308 2.0307 0.1703 2.6585 7.3293 0.0000 0.0000 0.0000 24.8485 3.4781 -4.7270 -1.0966 -6.6544 18.6955 0.3194 -14.6442 -16.8139 -0.3644 3.8779 -10.7333 -3.9523 0.6354 -4.9573 0.0891 1.0892 0.2511 2.3906 0.4852 2.9655 3.3146 1.9538 -33.2245 -2.6136 3.0222 32.9185 -0.9399 1.5079 17.9044 0.0000 -0.0000 0.0000 -91.2744 -6.2534 22.5950 13.5414 -22.0752 -2.6533 -0.0000 -0.0000 42.2647 -1.3526 6.1595 -0.1452 -7.1250 0.0000 -0.0000 -23.0486 35.2624 5.9166 0.0000 -0.0000 0.0000 89.3301 -0.9919 9.9659 -13.7948 22.4406 -2.7493 0.0000 0.0000 33.9049 -1.8801 -6.9232 0.2267 7.1250 -0.0000 -0.0000 20.7030 -36.1760 4.7468
